<?xml version="1.0" standalone="no"?>
<!DOCTYPE svg PUBLIC "-//W3C//DTD SVG 20010904//EN"
 "http://www.w3.org/TR/2001/REC-SVG-20010904/DTD/svg10.dtd">
<svg version="1.0" xmlns="http://www.w3.org/2000/svg"
 width="1024.000000pt" height="1024.000000pt" viewBox="0 0 1024.000000 1024.000000"
 preserveAspectRatio="xMidYMid meet">

<g transform="translate(0.000000,1024.000000) scale(0.100000,-0.100000)"
fill="#000000" stroke="none">
<path d="M0 5120 l0 -5120 5120 0 5120 0 0 5120 0 5120 -5120 0 -5120 0 0
-5120z m4907 3085 c66 -46 7 -159 -73 -139 -52 13 -73 95 -34 134 24 24 76 26
107 5z m323 -5 c25 -25 26 -80 3 -109 -10 -12 -34 -24 -53 -27 -29 -5 -40 -1
-63 21 -35 35 -36 77 -2 110 31 32 86 34 115 5z m303 -61 c45 -12 77 -57 77
-107 0 -25 -9 -43 -34 -68 -30 -30 -41 -34 -84 -34 -40 0 -54 5 -75 26 -56 55
-39 140 33 176 41 21 35 21 83 7z m-926 -14 c13 -9 27 -33 34 -53 20 -70 -29
-142 -100 -144 -117 -3 -164 126 -71 199 22 18 111 16 137 -2z m1544 -113 c60
-31 111 -101 124 -169 8 -46 -12 -64 -99 -88 -131 -37 -261 22 -357 162 l-29
42 53 30 c79 45 95 50 178 50 65 1 85 -3 130 -27z m-1867 -14 c23 -32 20 -74
-6 -98 -20 -18 -35 -20 -167 -20 -135 0 -146 1 -168 22 -29 27 -29 65 -1 95
21 22 28 23 174 23 147 0 154 -1 168 -22z m805 -83 c327 -78 442 -485 204
-723 -159 -160 -430 -157 -601 7 -84 81 -81 131 9 131 44 0 55 -5 93 -40 61
-57 122 -81 205 -82 231 -2 368 245 242 440 -91 140 -263 180 -404 92 -27 -17
-61 -30 -77 -30 -30 0 -90 43 -90 65 0 19 77 85 125 106 109 48 192 58 294 34z
m1251 -86 c0 -10 -4 -19 -10 -19 -5 0 -10 12 -10 26 0 14 4 23 10 19 6 -3 10
-15 10 -26z m142 0 c31 -8 38 -14 38 -34 0 -29 -27 -39 -83 -31 -58 9 -65 16
-59 54 5 37 7 37 104 11z m-790 -37 c58 -34 75 -123 34 -183 -17 -25 -22 -43
-19 -64 5 -24 3 -27 -11 -22 -9 4 -15 3 -12 -2 4 -5 -16 -11 -43 -13 -49 -3
-49 -3 -60 34 -7 22 -20 39 -32 43 -29 9 -59 63 -59 106 0 101 109 155 202
101z m-1120 -120 c37 -18 78 -46 92 -62 23 -28 29 -30 98 -30 65 0 76 3 97 26
31 32 93 64 124 64 62 0 133 -45 163 -102 23 -44 18 -123 -8 -149 -13 -12 -16
-18 -8 -14 9 5 12 4 7 -1 -5 -5 -12 -9 -15 -10 -20 -2 -69 -19 -91 -30 -14 -8
-33 -14 -43 -14 -9 0 -18 -5 -20 -12 -7 -21 -82 24 -98 59 -14 30 -19 33 -65
33 -108 1 -185 17 -226 47 -113 82 -54 73 -498 73 -428 0 -454 -3 -571 -56
-133 -61 -239 -182 -287 -328 -23 -73 -26 -101 -31 -270 -4 -167 -7 -191 -23
-207 -11 -11 -30 -19 -43 -19 -76 0 -86 29 -86 243 0 209 15 282 87 420 55
106 152 210 246 266 71 42 201 87 287 100 36 5 241 9 455 8 l390 -2 67 -33z
m2023 -58 c137 -28 270 -112 370 -232 97 -116 163 -280 135 -333 -9 -16 -14
-18 -20 -9 -4 7 -13 9 -19 5 -7 -4 -20 -3 -29 1 -32 14 -40 12 -37 -7 2 -11 0
-17 -6 -14 -5 4 -9 13 -9 22 0 39 -86 187 -147 253 -73 79 -131 119 -228 156
-91 35 -239 39 -325 10 -75 -26 -160 -69 -199 -101 -17 -15 -38 -24 -46 -21
-8 3 -25 26 -37 50 -21 45 -21 46 -2 67 32 36 149 108 221 135 118 45 226 50
378 18z m-2345 -223 l115 -7 -110 -2 -110 -2 3 -48 c5 -61 -13 -82 -69 -82
-80 0 -117 80 -62 135 25 24 32 26 73 20 25 -4 97 -11 160 -14z m-1366 -100
c21 -23 24 -74 6 -96 -17 -20 -79 -19 -102 2 -22 20 -23 70 -1 95 21 24 75 23
97 -1z m831 -19 c52 -26 89 -66 114 -122 29 -63 26 -114 -9 -187 -23 -50 -39
-69 -77 -93 -87 -56 -161 -62 -243 -20 -52 27 -115 101 -130 155 -27 96 39
232 135 277 52 24 153 20 210 -10z m2800 13 c94 -16 187 -91 231 -188 25 -53
29 -74 29 -147 -1 -70 -5 -94 -27 -140 -54 -116 -141 -183 -259 -199 -112 -15
-209 19 -292 101 -71 71 -92 123 -92 233 0 78 4 98 27 145 39 79 90 135 153
165 51 26 142 46 175 40 8 -2 33 -6 55 -10z m-3721 -172 c98 -152 139 -268
116 -328 -9 -24 -14 -25 -83 -25 -41 0 -134 3 -209 6 l-134 7 93 155 c79 130
160 250 171 252 1 0 22 -30 46 -67z m1816 -65 c30 -17 57 -33 60 -37 3 -3 14
-11 25 -17 11 -6 36 -19 55 -30 52 -29 109 -100 123 -153 6 -22 4 -23 -41 -16
-28 4 -103 36 -185 78 l-137 71 -228 4 c-125 1 -236 5 -248 7 -43 9 -51 81
-13 112 26 21 54 22 294 17 l239 -4 56 -32z m1240 23 c15 -29 12 -43 -16 -75
-19 -21 -36 -30 -60 -31 -25 0 -33 3 -29 13 3 7 5 25 5 38 0 30 41 74 69 74
11 0 25 -9 31 -19z m-338 -33 c16 -11 25 -25 22 -33 -10 -26 -147 -123 -224
-159 -69 -32 -192 -62 -211 -51 -4 3 -5 24 -2 48 9 81 10 84 50 92 62 11 175
62 228 103 45 35 53 38 80 29 17 -6 42 -19 57 -29z m1866 2 c12 -12 22 -32 22
-45 0 -46 -77 -62 -104 -23 -21 30 -20 44 4 68 26 26 50 25 78 0z m-261 -42
c-3 -7 -5 -2 -5 12 0 14 2 19 5 13 2 -7 2 -19 0 -25z m424 -138 c17 -10 19
-22 19 -123 l0 -111 46 -47 c51 -52 60 -88 28 -119 -39 -38 -85 -29 -144 28
l-50 48 0 151 c0 124 3 154 16 167 18 18 56 21 85 6z m-1987 -20 c14 -5 32
-23 41 -40 18 -35 17 -86 -2 -82 -7 1 -12 -3 -10 -10 3 -15 -62 -27 -85 -16
-10 5 -18 14 -18 20 0 9 3 9 11 1 9 -9 16 -8 27 3 8 8 21 13 28 10 8 -3 14 1
14 8 0 12 -6 12 -29 3 -22 -8 -36 -8 -55 1 -50 23 -21 87 51 111 1 1 13 -3 27
-9z m-1173 -30 c26 -15 24 -46 -6 -75 -41 -42 -105 -31 -105 18 0 56 57 85
111 57z m-339 -150 c99 -67 123 -193 54 -283 -105 -137 -311 -94 -356 74 -22
80 31 182 114 221 56 26 142 21 188 -12z m-1402 -51 c103 -47 161 -138 168
-266 8 -141 -26 -211 -189 -388 -129 -140 -139 -164 -139 -343 l0 -142 53 -24
c65 -29 139 -104 175 -176 23 -47 27 -67 27 -145 0 -77 -4 -98 -27 -147 -35
-76 -98 -142 -167 -175 -49 -25 -67 -28 -151 -28 -82 0 -103 4 -152 27 -76 35
-142 98 -175 167 -24 49 -28 68 -28 146 0 82 3 97 32 156 48 97 127 163 244
202 15 5 17 28 20 164 l4 159 37 75 c29 58 64 104 149 194 123 130 153 181
153 260 0 111 -97 185 -184 140 -39 -20 -50 -42 -38 -76 7 -20 5 -35 -6 -58
-31 -58 -81 -67 -120 -20 -20 23 -26 41 -26 77 1 169 187 290 340 221z m4709
-35 c35 -45 26 -95 -20 -119 -38 -20 -53 -19 -84 8 -36 31 -39 91 -6 118 35
28 85 25 110 -7z m-3788 -23 c17 -13 23 -29 23 -56 0 -27 -6 -43 -23 -56 -21
-18 -45 -19 -304 -19 -274 0 -281 0 -304 22 -31 29 -30 72 2 103 l24 25 279 0
c258 0 282 -1 303 -19z m2384 9 l100 -7 -92 -1 -92 -2 -7 -60 -7 -60 -491 0
c-270 0 -507 3 -526 6 -34 6 -35 7 -32 45 3 31 1 39 -12 39 -9 0 -16 4 -16 9
0 5 -3 16 -6 25 -6 14 46 16 537 15 299 -1 589 -5 644 -9z m1611 -214 c59 -50
20 -146 -58 -146 -75 0 -104 85 -49 141 36 35 70 37 107 5z m282 8 c33 -23 45
-60 31 -101 -12 -38 -34 -53 -79 -53 -45 0 -67 15 -80 54 -26 80 61 147 128
100z m-650 -33 c149 -77 154 -282 8 -358 -44 -23 -145 -21 -186 3 -55 32 -92
87 -98 143 -7 72 5 117 41 158 61 69 161 92 235 54z m-623 -61 c22 -9 57 -35
77 -56 73 -76 68 38 68 -1598 -1 -1584 2 -1508 -53 -1579 -35 -47 -117 -88
-186 -94 -45 -4 -68 -1 -109 17 -63 27 -133 101 -150 158 -17 56 -17 2953 0
3003 49 145 210 213 353 149z m-2097 -16 c29 -14 63 -40 76 -58 34 -46 291
-577 544 -1126 137 -299 358 -770 480 -1025 60 -126 133 -282 162 -345 29 -63
86 -186 126 -273 84 -181 98 -225 90 -284 -17 -122 -111 -203 -238 -203 -80 0
-146 30 -210 93 -45 46 -75 99 -186 337 -118 251 -142 297 -166 320 l-28 25
-693 5 -692 5 130 268 130 267 460 0 c363 0 458 3 454 13 -7 17 -355 744 -457
955 -46 95 -87 169 -91 165 -8 -9 -155 -316 -299 -628 -48 -104 -127 -271
-175 -370 -48 -99 -115 -243 -150 -320 -75 -167 -267 -577 -392 -835 -96 -198
-131 -246 -207 -281 -56 -25 -148 -25 -206 2 -60 27 -98 64 -126 124 -43 91
-32 143 86 390 34 72 81 173 105 225 23 52 109 235 190 405 210 442 236 497
480 1020 185 397 337 719 380 805 23 47 50 110 58 141 50 172 218 257 365 183z
m1540 -4 c43 -26 46 -78 6 -109 -26 -20 -37 -21 -409 -21 -210 0 -410 3 -444
6 l-61 7 0 58 0 59 -52 2 -53 1 60 7 c33 4 254 7 490 8 413 2 431 1 463 -18z
m-2928 -215 l0 -226 -67 3 -68 3 -3 223 -2 222 70 0 70 0 0 -225z m260 0 l0
-225 -70 0 -70 0 0 225 0 225 70 0 70 0 0 -225z m258 3 l-3 -223 -70 0 -70 0
-3 209 c-2 114 -1 214 2 222 4 10 25 14 76 14 l70 0 -2 -222z m233 172 c13 -7
19 -21 19 -43 0 -23 -3 -28 -9 -18 -7 11 -10 9 -13 -10 -5 -34 -51 -49 -78
-24 -57 52 11 132 81 95z m3832 -135 c32 -8 80 -26 107 -40 65 -33 167 -130
207 -196 51 -85 51 -84 -9 -84 -33 0 -52 -4 -51 -11 1 -6 -4 -11 -12 -11 -7 0
-11 7 -8 14 3 8 2 13 -3 11 -5 -1 -35 25 -67 58 -81 86 -131 111 -299 148 -27
6 -28 9 -28 66 l0 60 53 0 c29 0 79 -7 110 -15z m-5489 -21 c9 -8 17 -21 18
-27 4 -33 8 -126 10 -249 3 -154 0 -164 -64 -175 -30 -4 -41 -1 -62 20 -25 25
-26 29 -26 161 0 74 4 137 9 140 5 3 6 26 4 51 -7 61 15 95 62 95 18 0 41 -7
49 -16z m1652 -68 c27 -19 26 -122 -2 -143 -48 -35 -94 1 -94 76 0 70 45 102
96 67z m1363 -42 c28 -35 26 -59 -5 -91 -44 -44 -114 -15 -114 49 0 62 81 91
119 42z m811 -4 c0 -6 -115 -10 -325 -10 -210 0 -325 4 -325 10 0 6 115 10
325 10 210 0 325 -4 325 -10z m30 -62 c0 -28 -3 -49 -6 -45 -9 9 -10 106 -1
100 4 -2 7 -27 7 -55z m-3220 32 c26 -14 34 -57 15 -86 -31 -47 -125 -23 -125
33 0 48 62 79 110 53z m3023 -77 c-13 -2 -35 -2 -50 0 -16 2 -5 4 22 4 28 0
40 -2 28 -4z m-116 -145 c-2 -24 -4 -5 -4 42 0 47 2 66 4 43 2 -24 2 -62 0
-85z m1604 -35 c53 -30 79 -77 79 -141 0 -180 -218 -258 -326 -117 -40 52 -45
142 -12 199 51 88 166 114 259 59z m-3641 -33 c24 -24 27 -77 6 -106 -14 -18
-32 -19 -333 -24 l-318 -5 0 -155 c0 -145 1 -157 23 -193 13 -20 45 -49 70
-64 70 -40 92 -62 92 -96 0 -135 -227 -44 -303 121 -20 42 -22 66 -24 217 l-2
170 -83 3 c-68 2 -87 7 -105 24 -37 35 -26 99 20 118 12 5 228 9 480 9 444 1
458 0 477 -19z m2079 -93 c-1 -16 -3 -14 -10 11 -5 17 -13 32 -18 32 -5 0 -12
8 -15 18 -4 10 4 6 19 -11 14 -15 25 -38 24 -50z m-156 -7 c-3 -12 -8 -19 -11
-16 -5 6 5 36 12 36 2 0 2 -9 -1 -20z m-248 -30 c21 -8 25 -14 19 -33 -18 -60
-84 -79 -106 -31 -11 24 -9 29 15 50 32 27 36 28 72 14z m-1961 -160 c37 -14
66 -67 66 -118 0 -35 -6 -49 -30 -74 -28 -27 -36 -30 -76 -25 -100 11 -132
109 -61 186 35 37 62 46 101 31z m4281 -15 c32 -31 34 -96 5 -125 -49 -49
-140 -7 -140 65 0 73 85 111 135 60z m-1934 -80 c73 -38 169 -137 193 -200 23
-63 32 -241 21 -421 -5 -71 -10 -121 -12 -111 -5 21 -23 23 -23 1 0 -13 -7
-15 -40 -9 -30 5 -40 3 -42 -7 -4 -39 -16 160 -17 305 -1 145 -4 173 -20 206
-46 88 -154 142 -247 121 -27 -6 -63 -20 -82 -32 l-33 -20 -34 37 c-41 42 -44
66 -12 95 78 74 238 90 348 35z m2279 -107 c41 -44 10 -118 -50 -118 -33 0
-70 39 -70 74 0 58 80 87 120 44z m-635 -3 c33 -9 98 -34 145 -57 112 -55 247
-186 303 -295 99 -191 104 -436 11 -628 -98 -201 -272 -347 -466 -390 -57 -12
-118 -15 -273 -13 l-200 3 -3 68 c-2 37 -2 67 0 68 2 0 100 4 218 8 212 7 216
8 291 39 41 18 102 54 134 80 112 90 198 256 211 406 21 237 -143 472 -391
559 -16 6 -127 13 -245 16 l-215 6 -3 73 -3 72 213 0 c160 0 229 -4 273 -15z
m-1730 -161 c36 -14 45 -57 44 -216 -1 -84 -4 -178 -7 -208 l-7 -54 -56 -3
c-52 -3 -57 -2 -63 19 -3 13 -6 114 -6 225 l0 202 26 20 c28 22 42 25 69 15z
m-1273 -51 c20 -24 111 -187 142 -253 l26 -55 -33 -14 c-17 -7 -37 -14 -43
-15 -7 -1 -19 -8 -28 -15 -15 -13 -16 -11 -6 14 21 55 -13 105 -71 105 -49 0
-83 -39 -75 -85 6 -28 3 -33 -32 -48 -54 -24 -82 -22 -82 4 0 11 -4 17 -11 14
-10 -7 155 329 173 353 14 16 22 15 40 -5z m-1364 -76 c20 -21 20 -24 5 -54
-8 -18 -26 -39 -39 -48 -24 -15 -26 -15 -54 14 -36 35 -38 57 -8 88 27 29 68
30 96 0z m4302 -23 c140 -41 243 -152 271 -291 7 -34 11 -64 8 -67 -2 -2 -32
-7 -66 -11 l-63 -7 0 26 c0 69 -73 164 -155 202 -54 26 -117 30 -178 13 -36
-10 -40 -8 -69 20 -18 17 -35 31 -39 31 -16 0 -4 42 15 52 89 48 186 59 276
32z m-4483 -131 c31 -32 33 -38 19 -48 -9 -7 -16 -22 -16 -34 0 -12 -6 -21
-15 -21 -18 0 -20 -31 -2 -50 6 -8 2 -6 -10 4 -13 11 -19 24 -16 34 5 14 3 15
-8 4 -10 -10 -19 -6 -46 20 -38 37 -41 65 -12 102 29 37 64 34 106 -11z m-585
-14 c28 -20 49 -52 62 -95 6 -19 2 -23 -31 -29 -20 -4 -43 -14 -50 -23 -11
-15 -12 -13 -13 15 0 56 -52 82 -92 46 -20 -18 -24 -63 -6 -81 9 -9 9 -12 0
-12 -7 0 -12 4 -12 8 0 5 -13 7 -30 4 -24 -3 -30 -1 -30 14 0 16 -2 17 -11 4
-8 -11 -9 -1 -6 38 5 62 28 99 78 125 41 22 98 16 141 -14z m373 -107 c11 -9
28 -27 37 -40 8 -13 31 -34 49 -48 22 -16 27 -24 16 -24 -9 0 -17 5 -17 10 0
6 -10 14 -22 19 -17 6 -26 4 -36 -10 -7 -10 -22 -20 -35 -22 -12 -2 0 -5 27
-6 42 -1 47 1 41 17 -4 12 -1 11 15 -5 21 -23 67 -33 55 -12 -4 6 2 5 14 -3
19 -12 13 -13 -56 -16 -100 -4 -140 4 -169 33 -31 31 -31 69 1 100 28 29 52
31 80 7z m4678 -63 c85 -92 -36 -224 -132 -143 -58 49 -49 132 19 167 44 22
77 15 113 -24z m-4274 -265 c35 -45 23 -95 -26 -110 -16 -5 -216 -7 -445 -4
-376 4 -419 7 -434 22 -25 25 -22 77 5 100 22 17 50 18 451 18 l429 0 20 -26z
m2918 -29 c0 -8 -4 -12 -9 -9 -5 3 -6 10 -3 15 9 13 12 11 12 -6z m-3408 -255
l237 0 42 -60 c23 -32 42 -61 42 -65 0 -3 -142 -5 -315 -5 l-316 0 -24 25
c-27 26 -31 46 -14 76 14 26 47 40 83 34 16 -3 135 -5 265 -5z m95 -274 c25
-36 46 -67 46 -71 0 -3 -83 -5 -184 -3 -164 3 -186 5 -205 22 -34 31 -23 94
19 109 8 3 74 6 147 6 l131 1 46 -64z m4925 -134 c21 -23 23 -32 18 -87 -12
-131 -86 -248 -189 -299 -60 -30 -94 -33 -126 -10 -18 12 -22 24 -20 52 3 34
8 40 59 67 32 17 66 38 77 48 36 33 62 102 62 166 0 53 3 62 27 80 31 25 58
20 92 -17z m-3338 -1 c23 -18 24 -28 29 -153 5 -123 8 -137 35 -186 16 -30 46
-67 66 -83 69 -55 91 -59 302 -59 181 0 196 -1 221 -21 35 -27 36 -77 2 -108
-24 -22 -27 -23 -243 -19 l-218 3 -66 32 c-93 46 -160 112 -201 198 -33 70
-33 70 -33 224 0 148 1 154 24 172 29 24 53 24 82 0z m3065 -2 c15 -12 19 -66
6 -85 -17 -26 -56 -34 -156 -34 l-106 0 0 65 0 64 88 4 c108 5 150 1 168 -14z
m-2332 -5 c9 -3 16 -10 16 -16 0 -5 -4 -6 -10 -3 -5 3 -10 2 -10 -4 0 -6 -15
-25 -33 -43 -29 -30 -37 -33 -68 -27 -22 5 -36 3 -41 -4 -12 -19 -10 11 3 36
27 53 91 81 143 61z m-2409 -96 l46 -63 -77 -3 c-43 -2 -83 -1 -91 2 -11 5
-63 104 -63 121 0 3 31 5 70 5 l70 0 45 -62z m1115 -78 c19 -19 20 -33 20
-264 0 -282 11 -363 64 -471 42 -85 92 -145 168 -201 80 -58 154 -85 265 -93
68 -6 98 -13 113 -26 28 -26 26 -76 -5 -105 -23 -22 -30 -23 -112 -17 -92 6
-162 26 -253 72 -177 89 -295 221 -356 400 -27 78 -28 88 -32 347 -5 288 -1
329 29 359 25 25 74 24 99 -1z m312 -187 c3 -200 4 -210 29 -263 32 -69 78
-123 130 -152 22 -12 35 -25 29 -28 -7 -4 -7 -28 -2 -68 l9 -62 -26 7 c-87 21
-182 94 -235 182 -58 96 -68 144 -73 363 -3 109 -3 204 1 213 4 11 21 15 70
15 l64 0 4 -207z m618 136 c0 -48 -27 -79 -70 -79 -52 0 -89 64 -62 107 7 11
106 23 125 15 4 -2 7 -21 7 -43z m625 -280 c105 -39 211 -169 229 -280 5 -34
4 -35 -28 -36 -19 -1 -45 -8 -59 -18 l-26 -16 -11 38 c-27 90 -111 171 -206
199 -79 23 -106 72 -64 114 27 27 92 26 165 -1z m-1865 -249 c58 -58 -31 -149
-92 -93 -40 36 -8 113 47 113 14 0 34 -9 45 -20z m1657 -22 c18 -7 33 -18 33
-25 0 -7 5 -13 11 -13 5 0 7 6 3 13 -5 9 -4 9 6 0 26 -23 -28 -58 -86 -54 -19
1 -38 -5 -49 -16 -11 -11 -29 -16 -48 -14 -17 1 -33 -3 -38 -11 -6 -9 -9 -5
-9 12 0 28 23 67 54 90 44 32 72 36 123 18z m824 -16 c7 -18 4 -28 -15 -47
-27 -27 -55 -25 -75 6 -10 17 -9 25 4 45 21 33 74 30 86 -4z m779 5 c24 -13
45 -28 47 -33 5 -15 -47 -37 -82 -35 -19 1 -37 -5 -47 -16 -13 -14 -28 -18
-58 -15 -39 4 -41 6 -35 31 8 33 22 49 60 73 39 24 63 23 115 -5z m-400 -2
c32 -16 55 -72 45 -105 -28 -90 -156 -73 -172 22 -5 32 -1 41 25 68 34 33 59
37 102 15z m-22 -321 c40 -28 19 -63 -51 -82 -34 -10 -37 -9 -43 13 -9 36 -1
58 26 72 32 16 41 16 68 -3z m-1586 -54 c84 -24 117 -126 63 -195 -73 -97
-225 -48 -225 72 0 70 45 119 120 132 3 1 22 -4 42 -9z m1026 -16 c46 -32 18
-83 -50 -94 -36 -5 -45 -4 -41 7 3 8 -3 13 -16 13 -25 0 -27 17 -5 48 28 41
76 52 112 26z m346 -30 c25 -25 30 -61 12 -89 -17 -25 -50 -33 -61 -15 -3 6
-12 10 -18 10 -7 0 -6 -4 3 -10 9 -6 10 -10 3 -10 -21 0 -54 52 -47 74 16 53
74 74 108 40z"/>
<path d="M6005 7945 c-42 -42 -27 -97 31 -111 29 -7 73 19 75 44 3 34 -3 47
-27 70 -32 28 -49 28 -79 -3z"/>
<path d="M5589 7709 c-26 -26 -21 -49 12 -68 24 -13 29 -13 53 2 32 21 33 51
4 71 -30 21 -44 20 -69 -5z"/>
<path d="M4962 7534 c-28 -19 -30 -74 -3 -98 29 -26 91 -18 110 15 36 65 -43
128 -107 83z"/>
<path d="M6980 7090 c0 -5 5 -10 10 -10 6 0 10 5 10 10 0 6 -4 10 -10 10 -5 0
-10 -4 -10 -10z"/>
<path d="M3547 7160 c-28 -18 -59 -88 -52 -118 24 -105 172 -125 221 -31 36
70 -17 149 -103 156 -26 2 -56 -1 -66 -7z"/>
<path d="M6391 7004 c-28 -35 -27 -75 2 -102 40 -38 98 -26 125 25 18 32 15
51 -13 78 -34 35 -86 34 -114 -1z"/>
<path d="M2708 6945 c-12 -24 -19 -47 -16 -50 3 -3 31 -5 62 -3 l57 3 -30 48
c-17 26 -35 47 -41 47 -6 0 -20 -20 -32 -45z"/>
<path d="M5575 6779 c-4 -6 -5 -12 -2 -15 2 -3 7 2 10 11 7 17 1 20 -8 4z"/>
<path d="M3882 6554 c-51 -35 -12 -144 52 -144 41 0 80 41 80 85 0 65 -76 99
-132 59z"/>
<path d="M2335 5266 c-79 -35 -118 -133 -80 -205 19 -38 68 -78 104 -86 98
-21 214 94 186 187 -28 90 -129 140 -210 104z m66 -106 c6 0 8 4 5 9 -4 5 3 7
14 4 11 -3 20 -10 21 -17 0 -6 2 -19 4 -28 8 -43 -61 -78 -93 -46 -20 20 -14
65 10 83 14 9 24 11 26 5 2 -5 8 -10 13 -10z"/>
<path d="M2351 5124 c0 -11 3 -14 6 -6 3 7 2 16 -1 19 -3 4 -6 -2 -5 -13z"/>
<path d="M2420 5100 c-6 -11 -8 -20 -6 -20 3 0 10 9 16 20 6 11 8 20 6 20 -3
0 -10 -9 -16 -20z"/>
<path d="M7075 6226 c-42 -18 -57 -40 -57 -82 0 -73 81 -113 146 -71 52 34 46
105 -13 144 -39 27 -37 26 -76 9z"/>
<path d="M3399 5123 c-13 -17 -13 -17 6 -3 11 8 22 16 24 17 2 2 0 3 -6 3 -6
0 -17 -8 -24 -17z"/>
<path d="M5971 2274 c0 -11 3 -14 6 -6 3 7 2 16 -1 19 -3 4 -6 -2 -5 -13z"/>
</g>
</svg>
