<?xml version="1.0" standalone="no"?>
<!DOCTYPE svg PUBLIC "-//W3C//DTD SVG 20010904//EN"
 "http://www.w3.org/TR/2001/REC-SVG-20010904/DTD/svg10.dtd">
<svg version="1.0" xmlns="http://www.w3.org/2000/svg"
 width="599.000000pt" height="599.000000pt" viewBox="0 0 599.000000 599.000000"
 preserveAspectRatio="xMidYMid meet">

<g transform="translate(0.000000,599.000000) scale(0.100000,-0.100000)"
fill="#ffffff" stroke="none">
<path d="M2910 4944 c-319 -41 -624 -139 -849 -273 -178 -105 -424 -329 -557
-506 -115 -152 -220 -347 -278 -518 -40 -115 -84 -344 -98 -500 -33 -381 85
-828 304 -1155 234 -349 543 -603 918 -752 319 -128 555 -166 855 -141 403 35
670 131 1015 365 95 65 277 231 366 336 137 161 285 426 343 615 24 77 51 189
51 211 0 12 -35 14 -217 14 l-218 0 -29 -88 c-121 -367 -408 -693 -766 -866
-123 -60 -309 -120 -438 -141 -139 -23 -394 -17 -535 14 -182 39 -351 104
-492 191 -349 214 -611 576 -692 959 -21 97 -25 146 -26 306 -2 218 7 284 63
456 77 235 193 428 356 594 210 213 485 362 787 427 140 29 468 32 597 5 208
-45 413 -131 590 -248 244 -161 476 -474 571 -769 24 -76 30 -86 56 -91 46
-11 403 -10 403 0 0 24 -31 154 -56 231 -125 396 -419 774 -789 1016 -216 141
-470 241 -715 283 -121 21 -433 36 -520 25z"/>
<path d="M2970 4173 c-114 -11 -302 -69 -420 -128 -164 -83 -336 -242 -438
-405 -168 -269 -219 -678 -121 -975 55 -165 171 -351 293 -468 146 -140 376
-258 581 -298 87 -17 338 -17 423 0 197 39 383 115 513 212 115 85 320 317
319 360 -1 8 -31 32 -67 54 -37 22 -112 85 -169 140 l-101 101 -27 -51 c-63
-122 -213 -264 -340 -324 -215 -101 -493 -91 -696 26 -90 52 -216 181 -262
268 -66 126 -95 283 -78 419 23 189 98 338 226 454 196 177 476 228 747 137
162 -55 344 -224 428 -397 l22 -47 33 41 c45 58 167 164 247 215 l67 44 -40
59 c-244 359 -576 546 -1000 562 -58 3 -121 3 -140 1z"/>
</g>
</svg>
